<svg xmlns="http://www.w3.org/2000/svg" xmlns:xlink="http://www.w3.org/1999/xlink" version="1.1" width="24.149999618530273" height="24.149999618530273" viewBox="0 0.9500000476837158 24.149999618530273 24.149999618530273">
  <!-- Exported by Scratch - http://scratch.mit.edu/ -->
  <path id="ID0.15272649144753814" fill="none" stroke="#B2B2B2" stroke-width="2" d="M 12.075 1.95 C 15.131 1.95 17.899 3.191 19.904 5.196 C 21.909 7.201 23.15 9.969 23.15 13.025 C 23.15 16.081 21.909 18.849 19.904 20.854 C 17.899 22.859 15.131 24.1 12.075 24.1 C 9.019 24.1 6.251 22.859 4.246 20.854 C 2.241 18.849 1 16.081 1 13.025 C 1 9.969 2.241 7.201 4.246 5.196 C 6.251 3.191 9.019 1.95 12.075 1.95 Z "/>
  <path id="ID0.7627339768223464" fill="none" stroke="#B2B2B2" stroke-width="2" stroke-linecap="round" d="M 12 9.05 L 12 16.55 "/>
  <path id="ID0.18523314921185374" fill="none" stroke="#B2B2B2" stroke-width="2" stroke-linecap="round" d="M 8.2 13 L 15.7 12.95 "/>
</svg>